<svg xmlns="http://www.w3.org/2000/svg" width="18.559" height="15.083" viewBox="0 0 18.559 15.083"><defs><style>.cls-1{fill:#fff}</style></defs><path id="twitter" class="cls-1" d="M45.256 142.943a10.76 10.76 0 0 0 10.834-10.834q0-.247-.011-.492a7.747 7.747 0 0 0 1.9-1.971 7.6 7.6 0 0 1-2.187.6 3.821 3.821 0 0 0 1.674-2.106 7.63 7.63 0 0 1-2.418.924 3.812 3.812 0 0 0-6.49 3.472 10.81 10.81 0 0 1-7.848-3.978 3.811 3.811 0 0 0 1.178 5.083 3.78 3.78 0 0 1-1.723-.476v.048a3.809 3.809 0 0 0 3.055 3.733 3.8 3.8 0 0 1-1.719.065 3.812 3.812 0 0 0 3.556 2.645 7.641 7.641 0 0 1-4.729 1.63 7.752 7.752 0 0 1-.908-.053 10.78 10.78 0 0 0 5.836 1.71" transform="translate(-39.42 -127.86)"/></svg>