<svg xmlns="http://www.w3.org/2000/svg" width="15.827" height="15.827" viewBox="0 0 15.827 15.827"><defs><style>.cls-1{fill:#fff}</style></defs><path id="facebook" class="cls-1" d="M113.9 98.95H99.823a.873.873 0 0 0-.873.873V113.9a.873.873 0 0 0 .873.873h7.58v-6.129h-2.063v-2.384h2.06v-1.76a2.878 2.878 0 0 1 3.072-3.157 16.912 16.912 0 0 1 1.843.094v2.136h-1.264c-.992 0-1.184.471-1.184 1.163v1.525h2.365l-.308 2.389h-2.054v6.129h4.03a.874.874 0 0 0 .873-.873V99.823a.873.873 0 0 0-.873-.873z" transform="translate(-98.95 -98.95)"/></svg>