<svg xmlns="http://www.w3.org/2000/svg" viewBox="0 0 1024 1024" width="1024" height="1024"><defs><style>.cls-1{fill:#fff}</style></defs><path class="cls-1" d="M1012.52 314.78s-10-70.39-40.61-101.39c-38.84-40.68-82.38-40.89-102.35-43.27-142.93-10.32-357.34-10.32-357.34-10.32h-.44s-214.41 0-357.35 10.33c-20 2.38-63.49 2.58-102.35 43.27-30.63 31-40.59 101.39-40.59 101.39S1.28 397.44 1.28 480.1v77.49c0 82.66 10.22 165.32 10.22 165.32s10 70.39 40.59 101.39C90.94 865 142 863.69 164.71 868 246.43 875.79 512 878.22 512 878.22s214.63-.32 357.57-10.66c20-2.38 63.5-2.58 102.35-43.27 30.63-31 40.61-101.39 40.61-101.39s10.2-82.66 10.2-165.32V480.1c-.01-82.66-10.21-165.32-10.21-165.32zm-606 336.72v-287l276 144z" id="Lozenge"/></svg>