<svg xmlns="http://www.w3.org/2000/svg" width="16.553" height="16.553" viewBox="0 0 16.553 16.553"><defs><style>.cls-1{fill:#fff}</style></defs><path id="Path_338" data-name="Path 338" class="cls-1" d="M88.277 81.051c2.21 0 2.471.008 3.344.048a4.6 4.6 0 0 1 1.537.285 2.74 2.74 0 0 1 1.571 1.571 4.552 4.552 0 0 1 .285 1.537c.04.873.048 1.134.048 3.344s-.008 2.472-.048 3.344a4.6 4.6 0 0 1-.285 1.537 2.74 2.74 0 0 1-1.571 1.571 4.553 4.553 0 0 1-1.537.285c-.873.04-1.134.049-3.344.049s-2.471-.008-3.344-.048a4.6 4.6 0 0 1-1.537-.285 2.74 2.74 0 0 1-1.571-1.571 4.553 4.553 0 0 1-.285-1.537c-.04-.873-.048-1.134-.048-3.344s.008-2.472.048-3.344a4.6 4.6 0 0 1 .285-1.537 2.74 2.74 0 0 1 1.575-1.571 4.552 4.552 0 0 1 1.537-.285c.873-.04 1.134-.049 3.344-.049m0-1.491c-2.248 0-2.529.01-3.412.05a6.069 6.069 0 0 0-2.01.385 4.233 4.233 0 0 0-2.421 2.421 6.065 6.065 0 0 0-.385 2.009c-.04.881-.049 1.165-.049 3.412s.01 2.529.05 3.412a6.061 6.061 0 0 0 .385 2.009 4.233 4.233 0 0 0 2.421 2.421 6.066 6.066 0 0 0 2.009.385c.881.04 1.165.05 3.412.05s2.529-.01 3.412-.05a6.062 6.062 0 0 0 2.009-.385 4.233 4.233 0 0 0 2.421-2.421 6.066 6.066 0 0 0 .385-2.009c.04-.881.05-1.165.05-3.412s-.01-2.529-.05-3.412a6.062 6.062 0 0 0-.385-2.009 4.234 4.234 0 0 0-2.42-2.421 6.065 6.065 0 0 0-2.009-.385c-.885-.04-1.17-.05-3.417-.05z" transform="translate(-80 -79.56)"/><path id="Path_339" data-name="Path 339" class="cls-1" d="M294.42 289.72a4.25 4.25 0 1 0 4.25 4.25 4.25 4.25 0 0 0-4.25-4.25zm0 7.009a2.759 2.759 0 1 1 2.759-2.759 2.759 2.759 0 0 1-2.759 2.759z" transform="translate(-286.143 -285.694)"/><ellipse id="Ellipse_50" data-name="Ellipse 50" class="cls-1" cx=".993" cy=".993" rx=".993" ry=".993" transform="translate(11.701 2.865)"/></svg>