<svg xmlns="http://www.w3.org/2000/svg" width="16.208" height="16.4" viewBox="0 0 16.208 16.4"><defs><style>.cls-1{fill:#fff}</style></defs><path id="LinkedIn" class="cls-1" d="M104.574 84h-12.94A1.637 1.637 0 0 0 90 85.639V98.76a1.637 1.637 0 0 0 1.634 1.64h12.94a1.637 1.637 0 0 0 1.634-1.64V85.639A1.637 1.637 0 0 0 104.574 84zM95.2 96.976h-2.18v-7.015h2.18zM94.1 89.1a1.093 1.093 0 1 1 1.176-1.09A1.087 1.087 0 0 1 94.1 89.1zm9.066 7.876h-2.18v-3.888c0-.9-.316-1.521-1.1-1.521a1.2 1.2 0 0 0-1.119.818 1.57 1.57 0 0 0-.072.545v4.046h-2.18V92.2c0-.875-.029-1.606-.057-2.238h1.893l.1.976h.043a2.519 2.519 0 0 1 2.166-1.133c1.435 0 2.51.961 2.51 3.027z" transform="translate(-90 -84)"/></svg>