<?xml version="1.0" encoding="utf-8"?>
<!-- Generator: Adobe Illustrator 25.2.1, SVG Export Plug-In . SVG Version: 6.00 Build 0)  -->
<svg version="1.1" id="Layer_1" xmlns="http://www.w3.org/2000/svg" xmlns:xlink="http://www.w3.org/1999/xlink" x="0px" y="0px"
	 viewBox="0 0 402.3 74.3" style="enable-background:new 0 0 402.3 74.3;" xml:space="preserve">
<style type="text/css">
	.st0{fill:#FFFFFF;}
</style>
<g>
	<g>
		<g>
			<g>
				<path class="st0" d="M75.5,45.4v-0.2C75.5,29.6,85.7,21,96.8,21c7.1,0,11.5,3.2,14.6,7V4.9h13.3v63.8h-13.3V62
					c-3.2,4.4-7.7,7.6-14.6,7.6C85.9,69.6,75.5,61,75.5,45.4z M111.6,45.4v-0.2c0-7.8-5.2-12.9-11.4-12.9c-6.2,0-11.5,5.1-11.5,12.9
					v0.2c0,7.8,5.2,12.9,11.5,12.9C106.4,58.3,111.6,53.2,111.6,45.4z"/>
				<path class="st0" d="M125.6,45.6v-0.2c0-13.5,10.8-24.4,25.4-24.4c14.5,0,25.3,10.8,25.3,24.2v0.2c0,13.5-10.8,24.4-25.4,24.4
					C136.3,69.8,125.6,59,125.6,45.6z M163.1,45.6v-0.2c0-6.9-5-12.9-12.3-12.9c-7.6,0-12.1,5.9-12.1,12.8v0.2
					c0,6.9,5,12.9,12.3,12.9C158.6,58.3,163.1,52.5,163.1,45.6z"/>
				<path class="st0" d="M177.1,21.9h13.3v6.6c3.1-3.9,7-7.5,13.7-7.5c10.1,0,15.9,6.6,15.9,17.4v30.3h-13.3V42.6c0-6.3-3-9.5-8-9.5
					c-5.1,0-8.3,3.2-8.3,9.5v26.1h-13.3V21.9z"/>
				<path class="st0" d="M220.6,45.6v-0.2c0-13.5,10.8-24.4,25.4-24.4c14.5,0,25.3,10.8,25.3,24.2v0.2c0,13.5-10.8,24.4-25.4,24.4
					C231.3,69.8,220.6,59,220.6,45.6z M258.2,45.6v-0.2c0-6.9-5-12.9-12.3-12.9c-7.6,0-12.2,5.9-12.2,12.8v0.2
					c0,6.9,5,12.9,12.3,12.9C253.6,58.3,258.2,52.5,258.2,45.6z"/>
				<path class="st0" d="M265.3,21.9h14.1l10.5,31.4l10.6-31.4h13.8l-18.4,47.2h-12.1L265.3,21.9z"/>
				<path class="st0" d="M308.3,55.3v-0.2c0-10.2,7.8-14.9,18.9-14.9c4.7,0,8.1,0.8,11.5,1.9v-0.8c0-5.5-3.4-8.6-10-8.6
					c-5.1,0-8.7,1-12.9,2.5l-3.3-10.1c5.2-2.3,10.2-3.8,18.2-3.8c7.3,0,12.5,1.9,15.8,5.2c3.5,3.5,5.1,8.7,5.1,14.9v27.2h-12.8v-5.1
					c-3.2,3.6-7.7,5.9-14.2,5.9C315.5,69.6,308.3,64.5,308.3,55.3z M338.8,52.2v-2.4c-2.3-1-5.2-1.7-8.5-1.7c-5.7,0-9.2,2.3-9.2,6.5
					v0.2c0,3.6,3,5.7,7.3,5.7C334.6,60.4,338.8,57,338.8,52.2z"/>
				<path class="st0" d="M354.1,21.9h13.3v6.6c3.1-3.9,7-7.5,13.7-7.5c10.1,0,15.9,6.6,15.9,17.4v30.3h-13.3V42.6c0-6.3-3-9.5-8-9.5
					c-5.1,0-8.3,3.2-8.3,9.5v26.1h-13.3V21.9z"/>
			</g>
		</g>
	</g>
</g>
<path class="st0" d="M37.9,6.5C27.5,6.5,19,15,19,25.4c0,2,0.3,3.8,0.9,5.6c0.9-0.1,1.9-0.2,2.8-0.2c2.6,0,5,0.5,7.2,1.5
	c-1.6-1.8-2.5-4.2-2.5-6.9c0-5.8,4.7-10.6,10.6-10.6c5.8,0,10.6,4.7,10.6,10.6c0,3.6-1.8,6.8-4.5,8.7c-0.1,0.1-0.2,0.1-0.2,0.2
	l-2.7-4.5L38,42.1l12.4,3.1L48,41.4c0,0,0.1,0,0.1-0.1c3.3-2.2,6-5.3,7.4-9.1c0.8-2.1,1.3-4.4,1.3-6.8C56.8,15,48.4,6.5,37.9,6.5z"
	/>
<path class="st0" d="M56.9,32.5c-1.3,3.2-3.4,5.9-6.1,8c0.6-0.1,1.2-0.2,1.8-0.2c5.8,0,10.6,4.7,10.6,10.6c0,5.8-4.7,10.6-10.6,10.6
	c-5.7,0-10.4-4.6-10.6-10.2l4.9,0l-9-9.1l-9.1,9l4.9,0c0.1,4.4,1.6,8.3,4.2,11.5c3.5,4.3,8.8,7.1,14.7,7.1
	c10.4,0,18.9-8.5,18.9-18.9C71.6,41.9,65.3,34.4,56.9,32.5z"/>
<path class="st0" d="M33.1,54.3c-1.4,4.2-5.3,7.2-9.9,7.2c-5.8,0-10.6-4.7-10.6-10.6c0-5.8,4.7-10.6,10.6-10.6c1.6,0,3.1,0.4,4.5,1
	c0.1,0,0.1,0.1,0.2,0.1l-2.3,3.9l12.4-3.1l-3.1-12.4l-2.7,4.5c-0.1-0.1-0.2-0.1-0.3-0.2c-2.6-1.3-5.6-2.1-8.7-2.1
	c-1,0-2,0.1-2.9,0.2c-9.1,1.4-16,9.2-16,18.7c0,10.4,8.5,18.9,18.9,18.9c5.4,0,10.3-2.3,13.7-6C34.9,61.1,33.5,57.8,33.1,54.3z"/>
</svg>
